<?xml version="1.0" standalone="no"?>
<!DOCTYPE svg PUBLIC "-//W3C//DTD SVG 20010904//EN"
 "http://www.w3.org/TR/2001/REC-SVG-20010904/DTD/svg10.dtd">
<svg version="1.0" xmlns="http://www.w3.org/2000/svg"
 width="155.000000pt" height="155.000000pt" viewBox="0 0 155.000000 155.000000"
 preserveAspectRatio="xMidYMid meet">
<metadata>
Created by potrace 1.11, written by Peter Selinger 2001-2013
</metadata>
<g transform="translate(0.000000,155.000000) scale(0.100000,-0.100000)"
fill="#000000" stroke="none">
<path d="M100 1495 c0 -20 -5 -25 -25 -25 -36 0 -65 -33 -65 -74 0 -26 5 -36
20 -41 12 -4 27 -1 35 5 11 9 15 9 15 1 0 -6 4 -11 8 -11 5 0 15 33 22 73 7
39 15 78 17 85 3 6 -2 12 -11 12 -10 0 -16 -9 -16 -25z m-10 -63 c0 -24 -28
-62 -46 -62 -17 0 -19 51 -2 68 18 18 48 15 48 -6z"/>
<path d="M152 1447 c-41 -43 -19 -112 27 -87 25 13 28 -2 5 -25 -9 -9 -24 -13
-34 -10 -10 3 -21 1 -25 -5 -4 -6 7 -10 28 -10 42 0 62 22 71 75 4 22 10 50
13 63 5 20 1 22 -29 22 -23 0 -42 -8 -56 -23z m58 -21 c0 -25 -23 -56 -41 -56
-16 0 -22 30 -11 56 16 33 52 33 52 0z"/>
<path d="M276 1454 c-22 -22 -30 -59 -16 -83 11 -22 35 -26 67 -14 14 6 11 9
-16 13 -44 6 -51 26 -12 35 35 8 55 29 47 50 -7 20 -50 19 -70 -1z m54 -13 c0
-10 -24 -21 -47 -21 -13 0 -13 3 -3 15 13 16 50 21 50 6z"/>
<path d="M1300 1453 c-39 -14 -54 -79 -24 -103 22 -19 66 -1 82 33 12 24 11
32 -2 53 -16 24 -27 27 -56 17z m44 -28 c13 -34 -21 -79 -51 -67 -16 5 -17 54
-1 70 17 17 45 15 52 -3z"/>
<path d="M1389 1455 c-9 -8 6 -110 16 -109 6 0 20 20 33 44 18 37 22 40 22 20
0 -32 11 -70 19 -70 6 0 61 104 61 115 0 3 -4 5 -9 5 -5 0 -18 -21 -29 -47
l-21 -48 -1 35 c0 46 -12 66 -28 47 -6 -7 -18 -29 -26 -48 l-15 -34 -1 42 c0
37 -10 60 -21 48z"/>
<path d="M720 1406 c0 -2 -7 -40 -15 -83 -18 -92 -17 -83 -6 -83 5 0 11 10 13
22 4 31 23 33 36 3 6 -14 16 -25 22 -25 5 0 2 16 -7 35 -16 34 -16 36 7 60 32
34 13 32 -23 -2 -25 -24 -29 -25 -24 -8 15 56 18 85 8 85 -6 0 -11 -2 -11 -4z"/>
<path d="M817 1345 c-13 -45 -18 -105 -9 -105 5 0 12 16 15 36 7 41 23 64 45
64 12 0 14 -9 9 -50 -7 -55 7 -69 17 -19 15 75 0 102 -42 80 -15 -8 -21 -8
-25 2 -2 7 -6 4 -10 -8z"/>
<path d="M1329 1207 c-129 -67 -311 -192 -408 -281 -188 -173 -255 -241 -321
-323 -23 -29 -43 -53 -44 -53 -2 0 -19 33 -40 73 -49 98 -119 177 -154 177
-35 0 -172 -76 -172 -96 0 -8 24 -38 53 -67 40 -40 71 -90 135 -214 45 -88 82
-163 82 -167 0 -3 -10 -6 -22 -6 -19 0 -20 -2 -8 -10 20 -13 250 -13 250 0 0
6 -7 10 -15 10 -8 0 -15 2 -15 5 0 12 133 269 171 332 109 178 260 342 514
558 79 67 86 75 80 86 -9 14 -17 12 -86 -24z"/>
<path d="M150 1123 c-6 -32 -14 -69 -17 -83 -4 -20 -2 -22 6 -10 6 8 11 24 11
34 0 11 8 28 18 39 9 12 11 17 3 12 -11 -6 -12 -1 -7 29 4 20 5 36 2 36 -2 0
-10 -26 -16 -57z"/>
<path d="M55 1105 c-14 -13 -25 -31 -25 -39 0 -26 12 -46 27 -46 12 0 12 2 -1
16 -19 18 -19 17 -5 48 7 14 24 30 38 35 18 6 20 10 8 10 -10 1 -29 -10 -42
-24z"/>
<path d="M199 1121 c10 -6 12 -22 9 -56 -7 -54 7 -48 15 6 5 36 -6 59 -27 59
-6 0 -5 -4 3 -9z"/>
<path d="M620 1053 c-6 -32 -13 -70 -16 -85 -3 -16 -1 -28 5 -28 5 0 14 19 18
41 9 44 35 71 52 54 6 -6 7 -25 1 -50 -9 -39 -6 -55 6 -42 4 3 10 25 14 47 9
51 -9 77 -42 59 -20 -11 -20 -9 -14 25 4 21 3 36 -3 36 -5 0 -15 -26 -21 -57z"/>
<path d="M455 1089 c-10 -15 3 -25 16 -12 7 7 7 13 1 17 -6 3 -14 1 -17 -5z"/>
<path d="M523 1050 c-26 -11 -43 -40 -43 -75 0 -30 25 -43 51 -26 22 13 24 8
9 -20 -7 -12 -22 -19 -43 -19 -27 -1 -29 -2 -14 -11 24 -14 63 -4 72 18 14 34
32 133 25 133 -5 0 -14 2 -22 4 -7 3 -23 1 -35 -4z m37 -31 c0 -32 -19 -59
-40 -59 -25 0 -27 41 -4 64 22 22 44 20 44 -5z"/>
<path d="M440 1033 c0 -10 -3 -35 -6 -55 -4 -22 -3 -38 3 -38 5 0 14 25 20 55
8 44 7 55 -4 55 -7 0 -13 -8 -13 -17z"/>
<path d="M1142 784 c-31 -21 -45 -60 -32 -85 12 -21 45 -26 56 -7 5 7 2 9 -9
5 -25 -10 -40 16 -26 47 12 25 45 44 57 32 3 -4 1 -20 -5 -37 -12 -31 -8 -59
8 -59 5 0 9 10 9 23 0 12 3 39 6 60 6 34 5 37 -17 37 -14 0 -35 -7 -47 -16z"/>
<path d="M1407 788 c-23 -18 -36 -59 -26 -85 6 -17 16 -23 38 -23 41 0 49 18
9 22 -45 4 -45 23 -1 34 40 9 57 39 31 55 -18 12 -31 11 -51 -3z m41 -20 c-5
-15 -48 -24 -48 -10 0 14 12 22 33 22 10 0 17 -5 15 -12z"/>
<path d="M1227 704 c-8 -8 1 -24 14 -24 5 0 9 7 9 15 0 15 -12 20 -23 9z"/>
<path d="M1277 704 c-8 -8 1 -24 14 -24 5 0 9 7 9 15 0 15 -12 20 -23 9z"/>
<path d="M1327 704 c-8 -8 1 -24 14 -24 5 0 9 7 9 15 0 15 -12 20 -23 9z"/>
<path d="M1101 488 c-7 -35 -15 -71 -18 -82 -3 -12 -1 -16 6 -12 6 4 11 17 11
29 0 13 8 33 17 46 9 14 11 21 4 17 -9 -6 -11 1 -6 28 4 20 5 36 2 36 -2 0
-10 -28 -16 -62z"/>
<path d="M1033 482 c23 -25 21 -39 -8 -67 -14 -15 -19 -25 -11 -25 18 0 33 19
41 53 7 27 -7 57 -28 57 -5 0 -3 -8 6 -18z"/>
<path d="M1154 487 c14 -11 16 -19 8 -55 -6 -23 -6 -42 -2 -42 4 0 11 21 15
46 5 34 3 49 -7 55 -21 14 -34 10 -14 -4z"/>
<path d="M961 416 c-6 -38 -9 -71 -6 -74 3 -3 5 2 5 11 0 8 7 23 16 31 8 9 11
16 5 16 -14 0 -3 49 15 70 11 13 11 16 -5 16 -14 0 -20 -14 -30 -70z"/>
<path d="M66 464 c-21 -20 -20 -23 5 -50 24 -25 17 -48 -12 -39 -11 4 -19 2
-19 -5 0 -7 13 -10 33 -8 36 3 49 35 22 58 -21 18 -19 40 6 40 11 0 17 5 14
10 -9 15 -31 12 -49 -6z"/>
<path d="M155 456 c-27 -27 -33 -64 -13 -84 15 -15 68 -16 68 -1 0 6 -7 8 -16
5 -17 -6 -44 9 -44 25 0 5 10 9 23 9 13 0 32 6 43 14 15 12 17 18 8 33 -17 27
-41 27 -69 -1z m46 -11 c0 -13 -41 -19 -41 -7 0 11 20 22 33 18 5 -1 8 -6 8
-11z"/>
<path d="M1336 388 c-9 -12 -16 -32 -16 -45 0 -27 28 -56 47 -49 8 3 19 6 24
6 5 0 9 4 9 8 0 4 -12 8 -27 7 -18 0 -29 6 -31 18 -3 12 3 17 22 17 30 0 57
25 50 45 -9 23 -60 18 -78 -7z m59 2 c7 -12 -42 -36 -53 -26 -4 4 2 14 12 22
23 17 33 18 41 4z"/>
<path d="M1465 228 c-11 -29 -33 -153 -29 -158 8 -7 24 23 24 47 0 22 24 53
40 53 17 0 20 -19 11 -60 -7 -30 -6 -40 2 -37 7 2 16 23 20 47 7 37 6 46 -8
57 -12 8 -23 9 -36 3 -16 -9 -17 -6 -12 25 5 34 -3 49 -12 23z"/>
<path d="M796 173 c-10 -10 -16 -12 -12 -5 4 6 3 12 -2 12 -10 0 -35 -100 -27
-109 9 -8 25 21 25 46 0 12 9 29 21 37 12 8 20 19 18 25 -3 7 -11 5 -23 -6z"/>
<path d="M1096 169 c-17 -13 -26 -30 -26 -48 0 -72 82 -67 104 6 5 15 1 28
-13 42 -26 26 -32 26 -65 0z m51 -10 c24 -24 -18 -92 -47 -74 -22 14 -2 85 23
85 7 0 18 -5 24 -11z"/>
<path d="M1348 174 c-52 -28 -47 -101 6 -97 14 1 26 -2 26 -6 0 -15 -25 -31
-48 -31 -13 0 -20 -4 -17 -10 9 -14 38 -12 59 3 14 10 52 136 43 143 -14 11
-48 10 -69 -2z m42 -25 c0 -32 -19 -59 -40 -59 -25 0 -27 36 -3 62 22 24 43
23 43 -3z"/>
<path d="M1206 168 c-24 -77 -16 -98 35 -96 38 1 38 2 47 52 4 28 7 53 6 55
-7 10 -24 -13 -24 -33 0 -13 -9 -34 -19 -47 -28 -35 -45 -15 -32 39 5 26 5 42
0 42 -5 0 -11 -6 -13 -12z"/>
<path d="M170 160 c-1 -8 -5 -34 -9 -57 -5 -24 -4 -40 0 -37 5 3 9 15 9 27 0
29 27 67 47 67 13 0 15 -9 10 -51 -4 -29 -4 -49 -1 -46 10 10 23 79 17 93 -6
17 -39 19 -49 3 -4 -8 -9 -7 -15 2 -7 12 -9 11 -9 -1z"/>
<path d="M284 163 c16 -4 18 -12 12 -56 -4 -41 -3 -47 5 -27 16 39 8 84 -16
87 -18 2 -18 1 -1 -4z"/>
</g>
</svg>
